<svg width="25" height="24" viewBox="0 0 25 24" fill="none" xmlns="http://www.w3.org/2000/svg">
<path d="M11.0597 12.1646C14.4392 12.1644 15.6552 8.78067 15.9735 6.00114C16.3656 2.57706 14.7464 0 11.0597 0C7.37351 0 5.75347 2.57686 6.14591 6.00114C6.46453 8.78067 7.68014 12.1649 11.0597 12.1646Z" fill="white"/>
<path d="M18.4493 13.5731C18.558 13.5731 18.6661 13.5764 18.7733 13.5823C18.6125 13.3529 18.4264 13.1506 18.2085 12.9879C17.5592 12.5032 16.7181 12.3442 15.9746 12.0521C15.6127 11.9099 15.2886 11.7687 14.9844 11.6079C13.9576 12.734 12.6186 13.323 11.0593 13.3232C9.50049 13.3232 8.16158 12.7341 7.13488 11.6079C6.83064 11.7687 6.50649 11.9099 6.14464 12.0521C5.40115 12.3443 4.56017 12.5032 3.91076 12.9879C2.7877 13.8261 2.49747 15.7118 2.26943 16.9981C2.08123 18.0599 1.9548 19.1435 1.9179 20.222C1.88931 21.0574 2.30178 21.1745 3.00068 21.4267C3.87578 21.7423 4.77935 21.9767 5.689 22.1687C7.44574 22.5397 9.25656 22.8248 11.0596 22.8375C11.9332 22.8313 12.8086 22.7608 13.6789 22.648C13.0345 21.7144 12.6566 20.5835 12.6566 19.3658C12.6566 16.1717 15.2552 13.5731 18.4493 13.5731Z" fill="white"/>
<path d="M18.4492 14.7314C15.8899 14.7314 13.8151 16.8063 13.8151 19.3656C13.8151 21.9249 15.8899 23.9998 18.4492 23.9998C21.0086 23.9998 23.0834 21.9249 23.0834 19.3656C23.0834 16.8063 21.0085 14.7314 18.4492 14.7314ZM20.4767 20.1607H19.2443V21.393C19.2443 21.8321 18.8884 22.1881 18.4493 22.1881C18.0101 22.1881 17.6541 21.8321 17.6541 21.393V20.1607H16.4218C15.9827 20.1607 15.6267 19.8047 15.6267 19.3655C15.6267 18.9264 15.9826 18.5704 16.4218 18.5704H17.6541V17.3381C17.6541 16.8989 18.0101 16.5429 18.4493 16.5429C18.8884 16.5429 19.2443 16.8989 19.2443 17.3381V18.5704H20.4767C20.9158 18.5704 21.2718 18.9264 21.2718 19.3655C21.2718 19.8047 20.9158 20.1607 20.4767 20.1607Z" fill="white"/>
</svg>
