<svg width="25" height="28" viewBox="0 0 25 28" fill="none" xmlns="http://www.w3.org/2000/svg">
<path d="M19.5 12H5.5C4.17392 12 2.90215 12.5268 1.96447 13.4645C1.02678 14.4021 0.5 15.6739 0.5 17V23C0.5 24.3261 1.02678 25.5979 1.96447 26.5355C2.90215 27.4732 4.17392 28 5.5 28H19.5C20.8261 28 22.0979 27.4732 23.0355 26.5355C23.9732 25.5979 24.5 24.3261 24.5 23V17C24.5 15.6739 23.9732 14.4021 23.0355 13.4645C22.0979 12.5268 20.8261 12 19.5 12ZM12.5 24C11.7089 24 10.9355 23.7654 10.2777 23.3259C9.61992 22.8864 9.10723 22.2616 8.80448 21.5307C8.50173 20.7998 8.42252 19.9956 8.57686 19.2196C8.7312 18.4437 9.11216 17.731 9.67157 17.1716C10.231 16.6122 10.9437 16.2312 11.7196 16.0769C12.4956 15.9225 13.2998 16.0017 14.0307 16.3045C14.7616 16.6072 15.3864 17.1199 15.8259 17.7777C16.2654 18.4355 16.5 19.2089 16.5 20C16.5 21.0609 16.0786 22.0783 15.3284 22.8284C14.5783 23.5786 13.5609 24 12.5 24Z" fill="#00A86B"/>
<path d="M12.5 22C13.6046 22 14.5 21.1046 14.5 20C14.5 18.8954 13.6046 18 12.5 18C11.3954 18 10.5 18.8954 10.5 20C10.5 21.1046 11.3954 22 12.5 22Z" fill="#00A86B"/>
<path d="M12.5 0C12.2348 0 11.9805 0.105357 11.7929 0.292893C11.6054 0.48043 11.5 0.734784 11.5 1V6.59L8.96003 4.05C8.76873 3.88617 8.52265 3.80057 8.27097 3.81029C8.0193 3.82001 7.78056 3.92434 7.60246 4.10244C7.42437 4.28053 7.32004 4.51927 7.31032 4.77095C7.30059 5.02262 7.3862 5.2687 7.55003 5.46L11.79 9.71C11.8822 9.79995 11.9908 9.87126 12.11 9.92C12.2334 9.97226 12.366 9.99919 12.5 9.99919C12.634 9.99919 12.7666 9.97226 12.89 9.92C13.0092 9.87126 13.1179 9.79995 13.21 9.71L17.5 5.46C17.6639 5.2687 17.7495 5.02262 17.7397 4.77095C17.73 4.51927 17.6257 4.28053 17.4476 4.10244C17.2695 3.92434 17.0308 3.82001 16.7791 3.81029C16.5274 3.80057 16.2813 3.88617 16.09 4.05L13.5 6.59V1C13.5 0.734784 13.3947 0.48043 13.2071 0.292893C13.0196 0.105357 12.7652 0 12.5 0Z" fill="#00A86B"/>
</svg>
