<svg width="113" height="152" viewBox="0 0 113 152" fill="none" xmlns="http://www.w3.org/2000/svg">
<path d="M60.4934 0C74.0936 0 86.4238 5.44958 95.4767 14.2846L60.4934 50.6698V0Z" fill="#3C98AF"/>
<path d="M97.6917 28.0386C107.126 37.2483 113 50.1395 113 64.4231C113 75.3401 109.561 85.4444 103.731 93.7149L62.7095 64.4231L97.6917 28.0386Z" fill="#F58028"/>
<path d="M0.304099 66.6002C0.311013 64.3414 0.473665 62.1211 0.758483 59.941C0.868034 59.1136 0.995618 58.2929 1.14287 57.4789C1.46048 55.7186 1.86504 53.9887 2.35606 52.2966C2.56675 51.5675 2.79313 50.8472 3.03561 50.1315C3.56469 48.5655 4.16611 47.0341 4.83703 45.5413C5.12777 44.8883 5.43076 44.2466 5.74758 43.6097C6.44886 42.2048 7.21002 40.835 8.03105 39.5049C8.39156 38.9218 8.75721 38.3419 9.13903 37.7745C10.0878 36.3724 11.1023 35.0168 12.1781 33.7171C12.605 33.2018 13.0416 32.6925 13.4896 32.1914C14.4938 31.0702 15.5491 29.9966 16.6472 28.9647C17.134 28.5083 17.6326 28.0604 18.1379 27.6216C19.281 26.6287 20.4651 25.6862 21.6928 24.7974C22.2409 24.397 22.7948 24.0071 23.3604 23.6309C24.646 22.7715 25.9692 21.9651 27.3336 21.2263C27.9475 20.8921 28.5712 20.5705 29.2006 20.2605C30.8099 19.4702 32.4658 18.763 34.1645 18.1437C34.8619 17.8896 35.5631 17.6458 36.2738 17.4224C37.9258 16.9006 39.6125 16.4614 41.3302 16.1069C42.1222 15.9451 42.9214 15.8006 43.7262 15.6747C45.6289 15.3788 47.5685 15.1977 49.5331 15.1195C50.2163 15.0933 50.9009 15.0669 51.591 15.0669C52.1442 15.0669 52.5897 15.5178 52.5897 16.0733V18.2006V24.6066V27.4536V33.8596V36.7071V43.8277V46.6741V53.081V55.9289V62.334V65.1823V66.226L56.1449 68.7614L65.847 75.6893L87.683 91.2824L93.1901 95.2173C93.4063 95.3702 93.554 95.6046 93.5981 95.8668C93.6422 96.1308 93.5801 96.4023 93.4277 96.6196C93.3657 96.7072 93.2967 96.7897 93.2355 96.8755C92.3481 98.1171 91.4024 99.303 90.4198 100.45C89.9832 100.958 89.5443 101.463 89.088 101.954C88.0623 103.062 86.9895 104.117 85.8773 105.123C85.3789 105.574 84.8739 106.013 84.3618 106.443C83.0646 107.529 81.7307 108.563 80.3401 109.51C79.7742 109.896 79.1911 110.254 78.6105 110.617C77.2865 111.445 75.9297 112.215 74.5385 112.921C73.9061 113.237 73.2721 113.552 72.6287 113.843C71.1384 114.521 69.6096 115.113 68.0582 115.645C67.3484 115.888 66.6361 116.121 65.9155 116.331C64.2323 116.83 62.5245 117.255 60.7902 117.577C59.9781 117.726 59.1584 117.843 58.3394 117.952C56.1616 118.246 53.9564 118.407 51.7319 118.414C51.6849 118.417 51.6386 118.419 51.5912 118.419C50.6661 118.419 49.7478 118.391 48.8354 118.342C46.3598 118.21 43.9316 117.897 41.5603 117.42C40.3012 117.167 39.0622 116.861 37.8395 116.518C34.0971 115.467 30.5199 114.011 27.1723 112.178C23.7677 110.312 20.6005 108.059 17.7156 105.495C16.0918 104.053 14.56 102.51 13.1297 100.875C10.5828 97.9666 8.34737 94.7784 6.49619 91.3445C4.67545 87.9732 3.23176 84.3693 2.18828 80.6001C1.84751 79.3654 1.54387 78.1174 1.29262 76.8473C0.821277 74.4609 0.509659 72.0133 0.376801 69.5199C0.328832 68.5987 0.301534 67.6745 0.301534 66.7424C0.301249 66.6962 0.304099 66.6469 0.304099 66.6002Z" fill="#63CBD4"/>
<path d="M60.4933 0C74.0934 0 86.4237 5.44958 95.4766 14.2846L60.4933 50.6698V0Z" fill="#3C98AF"/>
<path d="M97.6916 28.0386C107.126 37.2483 113 50.1395 113 64.4231C113 75.3401 109.561 85.4444 103.73 93.7149L62.7094 64.4231L97.6916 28.0386Z" fill="#F58028"/>
<path d="M0.303489 66.6002C0.310403 64.3414 0.473054 62.1211 0.757873 59.941C0.867424 59.1136 0.995008 58.2929 1.14226 57.4789C1.45987 55.7186 1.86443 53.9887 2.35545 52.2966C2.56614 51.5675 2.79252 50.8472 3.035 50.1315C3.56408 48.5655 4.1655 47.0341 4.83642 45.5413C5.12716 44.8883 5.43015 44.2466 5.74697 43.6097C6.44825 42.2048 7.20941 40.835 8.03044 39.5049C8.39095 38.9218 8.75659 38.3419 9.13842 37.7745C10.0872 36.3724 11.1016 35.0168 12.1775 33.7171C12.6044 33.2018 13.041 32.6925 13.489 32.1914C14.4932 31.0702 15.5485 29.9966 16.6466 28.9647C17.1334 28.5083 17.632 28.0604 18.1373 27.6216C19.2804 26.6287 20.4644 25.6862 21.6922 24.7974C22.2403 24.397 22.7942 24.0071 23.3597 23.6309C24.6454 22.7715 25.9686 21.9651 27.3329 21.2263C27.9469 20.8921 28.5706 20.5705 29.2 20.2605C30.8093 19.4702 32.4652 18.763 34.1639 18.1437C34.8613 17.8896 35.5625 17.6458 36.2732 17.4224C37.9252 16.9006 39.6119 16.4614 41.3296 16.1069C42.1216 15.9451 42.9208 15.8006 43.7256 15.6747C45.6283 15.3788 47.5679 15.1977 49.5325 15.1195C50.2157 15.0933 50.9003 15.0669 51.5904 15.0669C52.1436 15.0669 52.5891 15.5178 52.5891 16.0733V18.2006V24.6066V27.4536V33.8596V36.7071V43.8277V46.6741V53.081V55.9289V62.334V65.1823V66.226L56.1443 68.7614L65.8464 75.6893L87.6824 91.2824L93.1895 95.2173C93.4057 95.3702 93.5534 95.6046 93.5975 95.8668C93.6416 96.1308 93.5795 96.4023 93.4271 96.6196C93.3651 96.7072 93.2961 96.7897 93.2348 96.8755C92.3475 98.1171 91.4018 99.303 90.4192 100.45C89.9826 100.958 89.5437 101.463 89.0874 101.954C88.0617 103.062 86.9889 104.117 85.8767 105.123C85.3783 105.574 84.8732 106.013 84.3612 106.443C83.064 107.529 81.7301 108.563 80.3395 109.51C79.7736 109.896 79.1905 110.254 78.6099 110.617C77.2859 111.445 75.9291 112.215 74.5379 112.921C73.9055 113.237 73.2715 113.552 72.6281 113.843C71.1378 114.521 69.609 115.113 68.0576 115.645C67.3478 115.888 66.6355 116.121 65.9149 116.331C64.2317 116.83 62.5239 117.255 60.7896 117.577C59.9774 117.726 59.1578 117.843 58.3388 117.952C56.161 118.246 53.9558 118.407 51.7313 118.414C51.6843 118.417 51.638 118.419 51.5906 118.419C50.6655 118.419 49.7471 118.391 48.8348 118.342C46.3592 118.21 43.931 117.897 41.5597 117.42C40.3006 117.167 39.0616 116.861 37.8389 116.518C34.0965 115.467 30.5193 114.011 27.1717 112.178C23.7671 110.312 20.5999 108.059 17.715 105.495C16.0912 104.053 14.5594 102.51 13.1291 100.875C10.5822 97.9666 8.34676 94.7784 6.49558 91.3445C4.67484 87.9732 3.23115 84.3693 2.18767 80.6001C1.8469 79.3654 1.54326 78.1174 1.29201 76.8473C0.820667 74.4609 0.509049 72.0133 0.376191 69.5199C0.328222 68.5987 0.300923 67.6745 0.300923 66.7424C0.300638 66.6962 0.303489 66.6469 0.303489 66.6002Z" fill="#63CBD4"/>
<path d="M60.4933 0C74.0934 0 86.4237 5.44958 95.4766 14.2846L60.4933 50.6698V0Z" fill="#3C98AF"/>
<path d="M97.6916 28.0386C107.126 37.2483 113 50.1395 113 64.4231C113 75.3401 109.561 85.4444 103.73 93.7149L62.7094 64.4231L97.6916 28.0386Z" fill="#F58028"/>
<path d="M0.303489 66.6002C0.310403 64.3414 0.473054 62.1211 0.757873 59.941C0.867424 59.1136 0.995008 58.2929 1.14226 57.4789C1.45987 55.7186 1.86443 53.9887 2.35545 52.2966C2.56614 51.5675 2.79252 50.8472 3.035 50.1315C3.56408 48.5655 4.1655 47.0341 4.83642 45.5413C5.12716 44.8883 5.43015 44.2466 5.74697 43.6097C6.44825 42.2048 7.20941 40.835 8.03044 39.5049C8.39095 38.9218 8.75659 38.3419 9.13842 37.7745C10.0872 36.3724 11.1016 35.0168 12.1775 33.7171C12.6044 33.2018 13.041 32.6925 13.489 32.1914C14.4932 31.0702 15.5485 29.9966 16.6466 28.9647C17.1334 28.5083 17.632 28.0604 18.1373 27.6216C19.2804 26.6287 20.4644 25.6862 21.6922 24.7974C22.2403 24.397 22.7942 24.0071 23.3597 23.6309C24.6454 22.7715 25.9686 21.9651 27.3329 21.2263C27.9469 20.8921 28.5706 20.5705 29.2 20.2605C30.8093 19.4702 32.4652 18.763 34.1639 18.1437C34.8613 17.8896 35.5625 17.6458 36.2732 17.4224C37.9252 16.9006 39.6119 16.4614 41.3296 16.1069C42.1216 15.9451 42.9208 15.8006 43.7256 15.6747C45.6283 15.3788 47.5679 15.1977 49.5325 15.1195C50.2157 15.0933 50.9003 15.0669 51.5904 15.0669C52.1436 15.0669 52.5891 15.5178 52.5891 16.0733V18.2006V24.6066V27.4536V33.8596V36.7071V43.8277V46.6741V53.081V55.9289V62.334V65.1823V66.226L56.1443 68.7614L65.8464 75.6893L87.6824 91.2824L93.1895 95.2173C93.4057 95.3702 93.5534 95.6046 93.5975 95.8668C93.6416 96.1308 93.5795 96.4023 93.4271 96.6196C93.3651 96.7072 93.2961 96.7897 93.2348 96.8755C92.3475 98.1171 91.4018 99.303 90.4192 100.45C89.9826 100.958 89.5437 101.463 89.0874 101.954C88.0617 103.062 86.9889 104.117 85.8767 105.123C85.3783 105.574 84.8732 106.013 84.3612 106.443C83.064 107.529 81.7301 108.563 80.3395 109.51C79.7736 109.896 79.1905 110.254 78.6099 110.617C77.2859 111.445 75.9291 112.215 74.5379 112.921C73.9055 113.237 73.2715 113.552 72.6281 113.843C71.1378 114.521 69.609 115.113 68.0576 115.645C67.3478 115.888 66.6355 116.121 65.9149 116.331C64.2317 116.83 62.5239 117.255 60.7896 117.577C59.9774 117.726 59.1578 117.843 58.3388 117.952C56.161 118.246 53.9558 118.407 51.7313 118.414C51.6843 118.417 51.638 118.419 51.5906 118.419C50.6655 118.419 49.7471 118.391 48.8348 118.342C46.3592 118.21 43.931 117.897 41.5597 117.42C40.3006 117.167 39.0616 116.861 37.8389 116.518C34.0965 115.467 30.5193 114.011 27.1717 112.178C23.7671 110.312 20.5999 108.059 17.715 105.495C16.0912 104.053 14.5594 102.51 13.1291 100.875C10.5822 97.9666 8.34676 94.7784 6.49558 91.3445C4.67484 87.9732 3.23115 84.3693 2.18767 80.6001C1.8469 79.3654 1.54326 78.1174 1.29201 76.8473C0.820667 74.4609 0.509049 72.0133 0.376191 69.5199C0.328222 68.5987 0.300923 67.6745 0.300923 66.7424C0.300638 66.6962 0.303489 66.6469 0.303489 66.6002Z" fill="#63CBD4"/>
<g filter="url(#filter0_i_350_3304)">
<path d="M60.4933 0C74.0934 0 86.4237 5.44958 95.4766 14.2846L60.4933 50.6698V0Z" fill="#9657E5"/>
</g>
<g filter="url(#filter1_i_350_3304)">
<path d="M97.6913 28.0386C107.126 37.2483 112.999 50.1395 112.999 64.4231C112.999 75.3401 109.56 85.4444 103.73 93.7149L62.709 64.4231L97.6913 28.0386Z" fill="#E8505F"/>
</g>
<g filter="url(#filter2_i_350_3304)">
<path d="M0.303489 66.6002C0.310403 64.3414 0.473054 62.1211 0.757873 59.941C0.867424 59.1136 0.995008 58.2929 1.14226 57.4789C1.45987 55.7186 1.86443 53.9887 2.35545 52.2966C2.56614 51.5675 2.79252 50.8472 3.035 50.1315C3.56408 48.5655 4.1655 47.0341 4.83642 45.5413C5.12716 44.8883 5.43015 44.2466 5.74697 43.6097C6.44825 42.2048 7.20941 40.835 8.03044 39.5049C8.39095 38.9218 8.75659 38.3419 9.13842 37.7745C10.0872 36.3724 11.1016 35.0168 12.1775 33.7171C12.6044 33.2018 13.041 32.6925 13.489 32.1914C14.4932 31.0702 15.5485 29.9966 16.6466 28.9647C17.1334 28.5083 17.632 28.0604 18.1373 27.6216C19.2804 26.6287 20.4644 25.6862 21.6922 24.7974C22.2403 24.397 22.7942 24.0071 23.3597 23.6309C24.6454 22.7715 25.9686 21.9651 27.3329 21.2263C27.9469 20.8921 28.5706 20.5705 29.2 20.2605C30.8093 19.4702 32.4652 18.763 34.1639 18.1437C34.8613 17.8896 35.5625 17.6458 36.2732 17.4224C37.9252 16.9006 39.6119 16.4614 41.3296 16.1069C42.1216 15.9451 42.9208 15.8006 43.7256 15.6747C45.6283 15.3788 47.5679 15.1977 49.5325 15.1195C50.2157 15.0933 50.9003 15.0669 51.5904 15.0669C52.1436 15.0669 52.5891 15.5178 52.5891 16.0733V18.2006V24.6066V27.4536V33.8596V36.7071V43.8277V46.6741V53.081V55.9289V62.334V65.1823V66.226L56.1443 68.7614L65.8464 75.6893L87.6824 91.2824L93.1895 95.2173C93.4057 95.3702 93.5534 95.6046 93.5975 95.8668C93.6416 96.1308 93.5795 96.4023 93.4271 96.6196C93.3651 96.7072 93.2961 96.7897 93.2348 96.8755C92.3475 98.1171 91.4018 99.303 90.4192 100.45C89.9826 100.958 89.5437 101.463 89.0874 101.954C88.0617 103.062 86.9889 104.117 85.8767 105.123C85.3783 105.574 84.8732 106.013 84.3612 106.443C83.064 107.529 81.7301 108.563 80.3395 109.51C79.7736 109.896 79.1905 110.254 78.6099 110.617C77.2859 111.445 75.9291 112.215 74.5379 112.921C73.9055 113.237 73.2715 113.552 72.6281 113.843C71.1378 114.521 69.609 115.113 68.0576 115.645C67.3478 115.888 66.6355 116.121 65.9149 116.331C64.2317 116.83 62.5239 117.255 60.7896 117.577C59.9774 117.726 59.1578 117.843 58.3388 117.952C56.161 118.246 53.9558 118.407 51.7313 118.414C51.6843 118.417 51.638 118.419 51.5906 118.419C50.6655 118.419 49.7471 118.391 48.8348 118.342C46.3592 118.21 43.931 117.897 41.5597 117.42C40.3006 117.167 39.0616 116.861 37.8389 116.518C34.0965 115.467 30.5193 114.011 27.1717 112.178C23.7671 110.312 20.5999 108.059 17.715 105.495C16.0912 104.053 14.5594 102.51 13.1291 100.875C10.5822 97.9666 8.34676 94.7784 6.49558 91.3445C4.67484 87.9732 3.23115 84.3693 2.18767 80.6001C1.8469 79.3654 1.54326 78.1174 1.29201 76.8473C0.820667 74.4609 0.509049 72.0133 0.376191 69.5199C0.328222 68.5987 0.300923 67.6745 0.300923 66.7424C0.300638 66.6962 0.303489 66.6469 0.303489 66.6002Z" fill="url(#paint0_linear_350_3304)"/>
</g>
<path d="M5.57724 145.916C4.56325 145.916 3.6546 145.751 2.85131 145.422C2.04802 145.093 1.40275 144.606 0.915509 143.961C0.441435 143.315 0.191229 142.538 0.164892 141.63H3.75995C3.81263 142.143 3.99041 142.538 4.29329 142.815C4.59617 143.078 4.99123 143.21 5.47847 143.21C5.97888 143.21 6.37395 143.098 6.66366 142.874C6.95337 142.637 7.09823 142.314 7.09823 141.906C7.09823 141.564 6.97971 141.281 6.74267 141.057C6.5188 140.833 6.23567 140.649 5.89329 140.504C5.56407 140.359 5.08999 140.194 4.47107 140.01C3.57559 139.733 2.84473 139.457 2.27847 139.18C1.71222 138.904 1.22497 138.496 0.816744 137.956C0.408513 137.416 0.204398 136.711 0.204398 135.842C0.204398 134.551 0.671888 133.544 1.60687 132.82C2.54185 132.082 3.75995 131.714 5.26119 131.714C6.78876 131.714 8.02004 132.082 8.95502 132.82C9.89 133.544 10.3904 134.558 10.4563 135.862H6.80193C6.77559 135.414 6.61098 135.065 6.3081 134.815C6.00522 134.551 5.61674 134.42 5.14267 134.42C4.73444 134.42 4.40522 134.532 4.15502 134.756C3.90481 134.966 3.77971 135.276 3.77971 135.684C3.77971 136.132 3.99041 136.481 4.41181 136.731C4.8332 136.981 5.49164 137.251 6.38711 137.541C7.28259 137.844 8.00687 138.133 8.55995 138.41C9.12621 138.686 9.61345 139.088 10.0217 139.615C10.4299 140.142 10.634 140.82 10.634 141.649C10.634 142.44 10.4299 143.157 10.0217 143.803C9.62662 144.448 9.0472 144.961 8.28341 145.343C7.51962 145.725 6.61757 145.916 5.57724 145.916ZM16.0905 136.316C16.4197 135.803 16.874 135.388 17.4535 135.072C18.0329 134.756 18.7111 134.598 19.488 134.598C20.3967 134.598 21.2197 134.828 21.9572 135.289C22.6946 135.75 23.274 136.408 23.6954 137.264C24.13 138.12 24.3473 139.114 24.3473 140.247C24.3473 141.379 24.13 142.38 23.6954 143.249C23.274 144.105 22.6946 144.77 21.9572 145.244C21.2197 145.705 20.3967 145.936 19.488 145.936C18.7243 145.936 18.0461 145.778 17.4535 145.462C16.874 145.146 16.4197 144.738 16.0905 144.237V151.032H12.7127V134.756H16.0905V136.316ZM20.9103 140.247C20.9103 139.404 20.6732 138.746 20.1992 138.272C19.7382 137.784 19.1654 137.541 18.4806 137.541C17.809 137.541 17.2362 137.784 16.7621 138.272C16.3012 138.759 16.0708 139.424 16.0708 140.267C16.0708 141.11 16.3012 141.775 16.7621 142.262C17.2362 142.749 17.809 142.993 18.4806 142.993C19.1522 142.993 19.7251 142.749 20.1992 142.262C20.6732 141.761 20.9103 141.09 20.9103 140.247ZM29.4971 131.161V145.778H26.1194V131.161H29.4971ZM33.6437 133.61C33.0512 133.61 32.5639 133.439 32.182 133.096C31.8133 132.741 31.6289 132.306 31.6289 131.793C31.6289 131.266 31.8133 130.831 32.182 130.489C32.5639 130.133 33.0512 129.956 33.6437 129.956C34.2232 129.956 34.6972 130.133 35.066 130.489C35.4479 130.831 35.6388 131.266 35.6388 131.793C35.6388 132.306 35.4479 132.741 35.066 133.096C34.6972 133.439 34.2232 133.61 33.6437 133.61ZM35.3228 134.756V145.778H31.945V134.756H35.3228ZM43.9138 142.914V145.778H42.1953C40.9706 145.778 40.0159 145.482 39.3311 144.889C38.6463 144.283 38.3039 143.302 38.3039 141.946V137.561H36.9607V134.756H38.3039V132.069H41.6817V134.756H43.8941V137.561H41.6817V141.985C41.6817 142.314 41.7607 142.551 41.9187 142.696C42.0768 142.841 42.3401 142.914 42.7089 142.914H43.9138ZM56.1854 140.089C56.1854 140.405 56.1657 140.734 56.1262 141.077H48.4817C48.5344 141.761 48.7517 142.288 49.1336 142.657C49.5286 143.012 50.0093 143.19 50.5755 143.19C51.4183 143.19 52.0043 142.835 52.3336 142.124H55.9286C55.7443 142.848 55.4085 143.5 54.9212 144.079C54.4471 144.658 53.848 145.113 53.1237 145.442C52.3994 145.771 51.5895 145.936 50.6941 145.936C49.6142 145.936 48.6529 145.705 47.8101 145.244C46.9673 144.784 46.3089 144.125 45.8348 143.269C45.3607 142.413 45.1237 141.412 45.1237 140.267C45.1237 139.121 45.3541 138.12 45.815 137.264C46.2891 136.408 46.9476 135.75 47.7904 135.289C48.6332 134.828 49.6011 134.598 50.6941 134.598C51.7607 134.598 52.7089 134.821 53.5385 135.269C54.3681 135.717 55.0134 136.356 55.4743 137.185C55.9484 138.015 56.1854 138.983 56.1854 140.089ZM52.7286 139.2C52.7286 138.621 52.5311 138.16 52.136 137.817C51.741 137.475 51.2471 137.304 50.6546 137.304C50.0883 137.304 49.6076 137.468 49.2126 137.798C48.8307 138.127 48.5936 138.594 48.5015 139.2H52.7286ZM77.857 131.911V145.778H74.4792V137.462L71.378 145.778H68.6521L65.5311 137.442V145.778H62.1533V131.911H66.1434L70.0348 141.511L73.8867 131.911H77.857ZM79.6144 140.247C79.6144 139.114 79.8251 138.12 80.2465 137.264C80.6811 136.408 81.2671 135.75 82.0046 135.289C82.742 134.828 83.565 134.598 84.4737 134.598C85.2506 134.598 85.9288 134.756 86.5083 135.072C87.1008 135.388 87.5552 135.803 87.8712 136.316V134.756H91.249V145.778H87.8712V144.217C87.542 144.731 87.0811 145.146 86.4885 145.462C85.9091 145.778 85.2309 145.936 84.4539 145.936C83.5585 145.936 82.742 145.705 82.0046 145.244C81.2671 144.77 80.6811 144.105 80.2465 143.249C79.8251 142.38 79.6144 141.379 79.6144 140.247ZM87.8712 140.267C87.8712 139.424 87.6342 138.759 87.1601 138.272C86.6992 137.784 86.1329 137.541 85.4613 137.541C84.7897 137.541 84.2169 137.784 83.7428 138.272C83.2819 138.746 83.0515 139.404 83.0515 140.247C83.0515 141.09 83.2819 141.761 83.7428 142.262C84.2169 142.749 84.7897 142.993 85.4613 142.993C86.1329 142.993 86.6992 142.749 87.1601 142.262C87.6342 141.775 87.8712 141.11 87.8712 140.267ZM99.8359 142.914V145.778H98.1174C96.8927 145.778 95.9379 145.482 95.2532 144.889C94.5684 144.283 94.226 143.302 94.226 141.946V137.561H92.8828V134.756H94.226V132.069H97.6038V134.756H99.8161V137.561H97.6038V141.985C97.6038 142.314 97.6828 142.551 97.8408 142.696C97.9988 142.841 98.2622 142.914 98.6309 142.914H99.8359ZM112.107 140.089C112.107 140.405 112.088 140.734 112.048 141.077H104.404C104.456 141.761 104.674 142.288 105.056 142.657C105.451 143.012 105.931 143.19 106.498 143.19C107.34 143.19 107.926 142.835 108.256 142.124H111.851C111.666 142.848 111.331 143.5 110.843 144.079C110.369 144.658 109.77 145.113 109.046 145.442C108.321 145.771 107.512 145.936 106.616 145.936C105.536 145.936 104.575 145.705 103.732 145.244C102.889 144.784 102.231 144.125 101.757 143.269C101.283 142.413 101.046 141.412 101.046 140.267C101.046 139.121 101.276 138.12 101.737 137.264C102.211 136.408 102.87 135.75 103.712 135.289C104.555 134.828 105.523 134.598 106.616 134.598C107.683 134.598 108.631 134.821 109.461 135.269C110.29 135.717 110.935 136.356 111.396 137.185C111.87 138.015 112.107 138.983 112.107 140.089ZM108.651 139.2C108.651 138.621 108.453 138.16 108.058 137.817C107.663 137.475 107.169 137.304 106.577 137.304C106.01 137.304 105.53 137.468 105.135 137.798C104.753 138.127 104.516 138.594 104.424 139.2H108.651Z" fill="#00001D"/>
<defs>
<filter id="filter0_i_350_3304" x="60.4933" y="0" width="34.9833" height="53.1391" filterUnits="userSpaceOnUse" color-interpolation-filters="sRGB">
<feFlood flood-opacity="0" result="BackgroundImageFix"/>
<feBlend mode="normal" in="SourceGraphic" in2="BackgroundImageFix" result="shape"/>
<feColorMatrix in="SourceAlpha" type="matrix" values="0 0 0 0 0 0 0 0 0 0 0 0 0 0 0 0 0 0 127 0" result="hardAlpha"/>
<feOffset dy="2.46914"/>
<feGaussianBlur stdDeviation="1.23457"/>
<feComposite in2="hardAlpha" operator="arithmetic" k2="-1" k3="1"/>
<feColorMatrix type="matrix" values="0 0 0 0 0 0 0 0 0 0 0 0 0 0 0 0 0 0 0.25 0"/>
<feBlend mode="normal" in2="shape" result="effect1_innerShadow_350_3304"/>
</filter>
<filter id="filter1_i_350_3304" x="62.709" y="28.0386" width="50.2905" height="68.1454" filterUnits="userSpaceOnUse" color-interpolation-filters="sRGB">
<feFlood flood-opacity="0" result="BackgroundImageFix"/>
<feBlend mode="normal" in="SourceGraphic" in2="BackgroundImageFix" result="shape"/>
<feColorMatrix in="SourceAlpha" type="matrix" values="0 0 0 0 0 0 0 0 0 0 0 0 0 0 0 0 0 0 127 0" result="hardAlpha"/>
<feOffset dy="2.46914"/>
<feGaussianBlur stdDeviation="1.23457"/>
<feComposite in2="hardAlpha" operator="arithmetic" k2="-1" k3="1"/>
<feColorMatrix type="matrix" values="0 0 0 0 0 0 0 0 0 0 0 0 0 0 0 0 0 0 0.25 0"/>
<feBlend mode="normal" in2="shape" result="effect1_innerShadow_350_3304"/>
</filter>
<filter id="filter2_i_350_3304" x="0.300903" y="15.0669" width="93.3104" height="105.821" filterUnits="userSpaceOnUse" color-interpolation-filters="sRGB">
<feFlood flood-opacity="0" result="BackgroundImageFix"/>
<feBlend mode="normal" in="SourceGraphic" in2="BackgroundImageFix" result="shape"/>
<feColorMatrix in="SourceAlpha" type="matrix" values="0 0 0 0 0 0 0 0 0 0 0 0 0 0 0 0 0 0 127 0" result="hardAlpha"/>
<feOffset dy="2.46914"/>
<feGaussianBlur stdDeviation="1.23457"/>
<feComposite in2="hardAlpha" operator="arithmetic" k2="-1" k3="1"/>
<feColorMatrix type="matrix" values="0 0 0 0 0 0 0 0 0 0 0 0 0 0 0 0 0 0 0.25 0"/>
<feBlend mode="normal" in2="shape" result="effect1_innerShadow_350_3304"/>
</filter>
<linearGradient id="paint0_linear_350_3304" x1="0.300903" y1="118.419" x2="103.116" y2="25.594" gradientUnits="userSpaceOnUse">
<stop stop-color="#E8505F"/>
<stop offset="1" stop-color="#9657E5"/>
</linearGradient>
</defs>
</svg>
