<svg width="24" height="24" viewBox="0 0 24 24" fill="none" xmlns="http://www.w3.org/2000/svg">
<path opacity="0.4" d="M12 6.44V9.77" stroke="url(#paint0_linear_193_544)" stroke-width="1.5" stroke-miterlimit="10" stroke-linecap="round"/>
<path d="M12.02 2C8.34002 2 5.36002 4.98 5.36002 8.66V10.76C5.36002 11.44 5.08002 12.46 4.73002 13.04L3.46002 15.16C2.68002 16.47 3.22002 17.93 4.66002 18.41C9.44002 20 14.61 20 19.39 18.41C20.74 17.96 21.32 16.38 20.59 15.16L19.32 13.04C18.97 12.46 18.69 11.43 18.69 10.76V8.66C18.68 5 15.68 2 12.02 2Z" stroke="url(#paint1_linear_193_544)" stroke-width="1.5" stroke-miterlimit="10" stroke-linecap="round"/>
<path opacity="0.4" d="M15.33 18.82C15.33 20.65 13.83 22.15 12 22.15C11.09 22.15 10.25 21.77 9.65004 21.17C9.05004 20.57 8.67004 19.73 8.67004 18.82" stroke="url(#paint2_linear_193_544)" stroke-width="1.5" stroke-miterlimit="10"/>
<defs>
<linearGradient id="paint0_linear_193_544" x1="12" y1="9.77" x2="13.7184" y2="9.29423" gradientUnits="userSpaceOnUse">
<stop stop-color="#8D51DB"/>
<stop offset="1" stop-color="#EB505A"/>
</linearGradient>
<linearGradient id="paint1_linear_193_544" x1="3.10266" y1="19.6025" x2="20.7204" y2="3.17186" gradientUnits="userSpaceOnUse">
<stop stop-color="#8D51DB"/>
<stop offset="1" stop-color="#EB505A"/>
</linearGradient>
<linearGradient id="paint2_linear_193_544" x1="8.67004" y1="22.15" x2="11.4702" y2="16.9865" gradientUnits="userSpaceOnUse">
<stop stop-color="#8D51DB"/>
<stop offset="1" stop-color="#EB505A"/>
</linearGradient>
</defs>
</svg>
