<svg width="25" height="24" viewBox="0 0 25 24" fill="none" xmlns="http://www.w3.org/2000/svg">
<g clip-path="url(#clip0_540_626)">
<path d="M11.543 23.9704V13.9863L5.27588 21.7343C7.11521 23.0637 9.273 23.8377 11.543 23.9704Z" fill="#9E9E9E"/>
<path d="M12.9482 12.7031V23.9704C15.8675 23.7999 18.6029 22.5697 20.714 20.4616C22.8255 18.3531 24.0586 15.6205 24.2294 12.7031H12.9482Z" fill="#9E9E9E"/>
<path d="M19.2644 6.70117H21.0195V11.2976H19.2644V6.70117Z" fill="#9E9E9E"/>
<path d="M3.78184 3.53904C1.50428 5.81547 0.25 8.82044 0.25 12.0003C0.25 15.1803 1.50428 18.1852 3.78184 20.4617C3.91403 20.5938 4.04889 20.7221 4.18591 20.8473L11.543 11.7517V0.0297852C8.62272 0.200832 5.89019 1.43172 3.78184 3.53904Z" fill="#9E9E9E"/>
<path d="M12.9482 5.30566H14.6989V11.298H12.9482V5.30566Z" fill="#9E9E9E"/>
<path d="M16.1041 1.92432H17.8592V11.298H16.1041V1.92432Z" fill="#9E9E9E"/>
<path d="M22.4247 8.58008H24.25V11.2977H22.4247V8.58008Z" fill="#9E9E9E"/>
</g>
<defs>
<clipPath id="clip0_540_626">
<rect width="24" height="24" fill="white" transform="translate(0.25)"/>
</clipPath>
</defs>
</svg>
