<svg width="25" height="24" viewBox="0 0 25 24" fill="none" xmlns="http://www.w3.org/2000/svg">
<g clip-path="url(#clip0_540_1783)">
<path d="M12.75 21.1407C8.27036 21.1407 4.48005 17.9368 3.73572 13.5231C3.67117 13.1399 3.92936 12.7774 4.31252 12.7128C4.69155 12.6572 5.0582 12.9058 5.12275 13.2896C5.75172 17.0243 8.95975 19.7345 12.75 19.7345C13.1387 19.7345 13.4531 20.049 13.4531 20.4376C13.4531 20.8263 13.1387 21.1407 12.75 21.1407Z" fill="#9E9E9E"/>
<path d="M20.0422 9.42234C18.949 6.33792 16.0185 4.26562 12.75 4.26562C12.3614 4.26562 12.0469 3.95114 12.0469 3.5625C12.0469 3.17386 12.3614 2.85938 12.75 2.85938C16.6131 2.85938 20.0765 5.30794 21.3688 8.95266C21.4979 9.31866 21.307 9.72033 20.9403 9.85013C20.5823 9.978 20.1752 9.79491 20.0422 9.42234Z" fill="#9E9E9E"/>
<path d="M12.75 5.67188C9.25505 5.67188 6.42188 8.50505 6.42188 12C6.42188 15.495 9.25505 18.3281 12.75 18.3281C16.245 18.3281 19.0781 15.495 19.0781 12C19.0781 8.50505 16.245 5.67188 12.75 5.67188ZM13.4531 15.3861V16.2188C13.4531 16.6074 13.1386 16.9219 12.75 16.9219C12.3614 16.9219 12.0469 16.6074 12.0469 16.2188V15.3879C11.754 15.2843 11.4831 15.1232 11.2572 14.8969C10.9839 14.6223 10.9839 14.1766 11.2586 13.9027C11.5332 13.6294 11.9796 13.628 12.2542 13.904C12.658 14.3092 13.4531 13.983 13.4531 13.4062C13.4531 13.0183 13.1373 12.7031 12.75 12.7031C11.5868 12.7031 10.6406 11.7569 10.6406 10.5938C10.6406 9.67828 11.2302 8.90512 12.0469 8.61389V7.78125C12.0469 7.39261 12.3614 7.07812 12.75 7.07812C13.1386 7.07812 13.4531 7.39261 13.4531 7.78125V8.61211C13.746 8.7157 14.0169 8.87681 14.2428 9.10308C14.5161 9.37772 14.5161 9.82336 14.2414 10.0973C13.9668 10.3706 13.5204 10.372 13.2458 10.096C12.842 9.6908 12.0469 10.017 12.0469 10.5938C12.0469 10.9817 12.3627 11.2969 12.75 11.2969C13.9132 11.2969 14.8594 12.2431 14.8594 13.4062C14.8594 14.3217 14.2698 15.0949 13.4531 15.3861Z" fill="#9E9E9E"/>
<path d="M24.544 15.7214L21.6846 12.9089C21.4841 12.7085 21.1792 12.6466 20.9183 12.7565C20.656 12.865 20.4844 13.1218 20.4844 13.4061V14.1092H20.1844C19.6931 15.8374 18.6179 17.3193 17.1826 18.3279H20.4844V19.0311C20.4844 19.3153 20.656 19.5721 20.9183 19.6806C21.1739 19.7881 21.4801 19.7327 21.6846 19.5282L24.544 16.7157C24.8186 16.441 24.8186 15.9961 24.544 15.7214Z" fill="#9E9E9E"/>
<path d="M5.01564 9.89074H5.31554C5.80684 8.16255 6.88206 6.6806 8.31737 5.67199H5.01564V4.96886C5.01564 4.68461 4.84398 4.42778 4.58167 4.31931C4.32212 4.20944 4.01589 4.26986 3.81536 4.47175L0.95598 7.28425C0.68134 7.55889 0.68134 8.00388 0.95598 8.27852L3.81536 11.091C4.01973 11.2954 4.32601 11.351 4.58167 11.2435C4.84398 11.1349 5.01564 10.8781 5.01564 10.5939V9.89074Z" fill="#9E9E9E"/>
</g>
<defs>
<clipPath id="clip0_540_1783">
<rect width="24" height="24" fill="white" transform="translate(0.75)"/>
</clipPath>
</defs>
</svg>
