<svg width="64" height="64" viewBox="0 0 64 64" fill="none" xmlns="http://www.w3.org/2000/svg">
<g clip-path="url(#clip0_350_3648)">
<path d="M64 32.0002L56.7549 23.9562L57.8893 13.1873L47.295 10.9446L41.8909 1.55664L32 5.97716L30.665 32.0002L32 58.0231L41.891 62.4436L47.295 53.0558L57.8893 50.8129L56.7549 40.044L64 32.0002Z" fill="#0ED678"/>
<path d="M22.109 1.55664L16.705 10.9446L6.11071 13.1875L7.24509 23.9562L0 32.0002L7.24509 40.044L6.11071 50.8129L16.705 53.0558L22.1091 62.4436L32.0001 58.0231V5.97716L22.109 1.55664Z" fill="#04EB84"/>
<path d="M45.4152 24.9933L42.6141 22.4932L32 34.3847L30.665 37.3399L32 40.0231L45.4152 24.9933Z" fill="#F7F0EB"/>
<path d="M20.8457 29.1724L18.1909 31.8272L29.3527 42.9891L32.0003 40.0229V34.3845L29.1977 37.5243L20.8457 29.1724Z" fill="#FFFBF5"/>
</g>
<defs>
<clipPath id="clip0_350_3648">
<rect width="64" height="64" fill="white"/>
</clipPath>
</defs>
</svg>
